<mxfile host="Electron" modified="2023-11-17T10:58:23.733Z" agent="Mozilla/5.0 (Windows NT 10.0; Win64; x64) AppleWebKit/537.36 (KHTML, like Gecko) draw.io/22.0.3 Chrome/114.0.5735.289 Electron/25.8.4 Safari/537.36" etag="qjNySrh_AVwApHWKAIRY" version="22.0.3" type="device">
  <diagram name="PÃ¡gina-1" id="TORAN7Tez8-_v-4WbiWr">
    <mxGraphModel dx="1381" dy="872" grid="1" gridSize="10" guides="1" tooltips="1" connect="1" arrows="1" fold="1" page="1" pageScale="1" pageWidth="1169" pageHeight="827" math="0" shadow="0">
      <root>
        <mxCell id="0" />
        <mxCell id="1" parent="0" />
        <mxCell id="HwIQE1jN6itCA7NaICgB-1" value="Empleado" style="whiteSpace=wrap;html=1;align=center;" vertex="1" parent="1">
          <mxGeometry x="407.5" y="80" width="100" height="40" as="geometry" />
        </mxCell>
        <mxCell id="HwIQE1jN6itCA7NaICgB-2" value="ISA" style="strokeWidth=2;html=1;shape=mxgraph.flowchart.merge_or_storage;whiteSpace=wrap;" vertex="1" parent="1">
          <mxGeometry x="407.5" y="160" width="95" height="60" as="geometry" />
        </mxCell>
        <mxCell id="HwIQE1jN6itCA7NaICgB-3" value="Cocinero" style="whiteSpace=wrap;html=1;align=center;" vertex="1" parent="1">
          <mxGeometry x="330" y="280" width="100" height="40" as="geometry" />
        </mxCell>
        <mxCell id="HwIQE1jN6itCA7NaICgB-4" value="Pinche" style="whiteSpace=wrap;html=1;align=center;" vertex="1" parent="1">
          <mxGeometry x="610" y="280" width="100" height="40" as="geometry" />
        </mxCell>
        <mxCell id="HwIQE1jN6itCA7NaICgB-5" value="" style="endArrow=none;html=1;rounded=0;entryX=0.354;entryY=0.774;entryDx=0;entryDy=0;entryPerimeter=0;" edge="1" parent="1" source="HwIQE1jN6itCA7NaICgB-3" target="HwIQE1jN6itCA7NaICgB-2">
          <mxGeometry relative="1" as="geometry">
            <mxPoint x="470" y="410" as="sourcePoint" />
            <mxPoint x="630" y="410" as="targetPoint" />
          </mxGeometry>
        </mxCell>
        <mxCell id="HwIQE1jN6itCA7NaICgB-6" value="" style="endArrow=none;html=1;rounded=0;entryX=0.642;entryY=0.748;entryDx=0;entryDy=0;entryPerimeter=0;" edge="1" parent="1" source="HwIQE1jN6itCA7NaICgB-4" target="HwIQE1jN6itCA7NaICgB-2">
          <mxGeometry relative="1" as="geometry">
            <mxPoint x="420" y="280" as="sourcePoint" />
            <mxPoint x="540" y="220" as="targetPoint" />
            <Array as="points" />
          </mxGeometry>
        </mxCell>
        <mxCell id="HwIQE1jN6itCA7NaICgB-7" value="" style="endArrow=none;html=1;rounded=0;" edge="1" parent="1" source="HwIQE1jN6itCA7NaICgB-2" target="HwIQE1jN6itCA7NaICgB-1">
          <mxGeometry relative="1" as="geometry">
            <mxPoint x="440" y="200" as="sourcePoint" />
            <mxPoint x="600" y="200" as="targetPoint" />
          </mxGeometry>
        </mxCell>
        <mxCell id="HwIQE1jN6itCA7NaICgB-8" value="Almacen" style="whiteSpace=wrap;html=1;align=center;" vertex="1" parent="1">
          <mxGeometry x="685" y="480" width="100" height="40" as="geometry" />
        </mxCell>
        <mxCell id="HwIQE1jN6itCA7NaICgB-9" value="Estantes" style="whiteSpace=wrap;html=1;align=center;" vertex="1" parent="1">
          <mxGeometry x="685" y="680" width="100" height="40" as="geometry" />
        </mxCell>
        <mxCell id="HwIQE1jN6itCA7NaICgB-10" value="Ingredientes" style="whiteSpace=wrap;html=1;align=center;" vertex="1" parent="1">
          <mxGeometry x="330" y="680" width="100" height="40" as="geometry" />
        </mxCell>
        <mxCell id="HwIQE1jN6itCA7NaICgB-11" value="tiene" style="shape=rhombus;perimeter=rhombusPerimeter;whiteSpace=wrap;html=1;align=center;" vertex="1" parent="1">
          <mxGeometry x="675" y="570" width="120" height="60" as="geometry" />
        </mxCell>
        <mxCell id="HwIQE1jN6itCA7NaICgB-12" value="guarda" style="shape=rhombus;perimeter=rhombusPerimeter;whiteSpace=wrap;html=1;align=center;" vertex="1" parent="1">
          <mxGeometry x="495" y="670" width="120" height="60" as="geometry" />
        </mxCell>
        <mxCell id="HwIQE1jN6itCA7NaICgB-13" value="forman" style="shape=rhombus;perimeter=rhombusPerimeter;whiteSpace=wrap;html=1;align=center;" vertex="1" parent="1">
          <mxGeometry x="320" y="570" width="120" height="60" as="geometry" />
        </mxCell>
        <mxCell id="HwIQE1jN6itCA7NaICgB-14" value="Plato" style="whiteSpace=wrap;html=1;align=center;" vertex="1" parent="1">
          <mxGeometry x="330" y="480" width="100" height="40" as="geometry" />
        </mxCell>
        <mxCell id="HwIQE1jN6itCA7NaICgB-15" value="cocina" style="shape=rhombus;perimeter=rhombusPerimeter;whiteSpace=wrap;html=1;align=center;" vertex="1" parent="1">
          <mxGeometry x="320" y="370" width="120" height="60" as="geometry" />
        </mxCell>
        <mxCell id="HwIQE1jN6itCA7NaICgB-16" value="" style="endArrow=none;html=1;rounded=0;" edge="1" parent="1" source="HwIQE1jN6itCA7NaICgB-3" target="HwIQE1jN6itCA7NaICgB-15">
          <mxGeometry relative="1" as="geometry">
            <mxPoint x="150" y="310" as="sourcePoint" />
            <mxPoint x="310" y="310" as="targetPoint" />
          </mxGeometry>
        </mxCell>
        <mxCell id="HwIQE1jN6itCA7NaICgB-17" value="" style="endArrow=none;html=1;rounded=0;" edge="1" parent="1" source="HwIQE1jN6itCA7NaICgB-15" target="HwIQE1jN6itCA7NaICgB-14">
          <mxGeometry relative="1" as="geometry">
            <mxPoint x="150" y="308" as="sourcePoint" />
            <mxPoint x="310" y="308" as="targetPoint" />
          </mxGeometry>
        </mxCell>
        <mxCell id="HwIQE1jN6itCA7NaICgB-19" value="supervisa" style="shape=rhombus;perimeter=rhombusPerimeter;whiteSpace=wrap;html=1;align=center;" vertex="1" parent="1">
          <mxGeometry x="460" y="270" width="120" height="60" as="geometry" />
        </mxCell>
        <mxCell id="HwIQE1jN6itCA7NaICgB-20" value="" style="endArrow=none;html=1;rounded=0;" edge="1" parent="1" source="HwIQE1jN6itCA7NaICgB-3" target="HwIQE1jN6itCA7NaICgB-19">
          <mxGeometry relative="1" as="geometry">
            <mxPoint x="180" y="210" as="sourcePoint" />
            <mxPoint x="340" y="210" as="targetPoint" />
          </mxGeometry>
        </mxCell>
        <mxCell id="HwIQE1jN6itCA7NaICgB-21" value="" style="endArrow=none;html=1;rounded=0;" edge="1" parent="1" source="HwIQE1jN6itCA7NaICgB-4" target="HwIQE1jN6itCA7NaICgB-19">
          <mxGeometry relative="1" as="geometry">
            <mxPoint x="180" y="210" as="sourcePoint" />
            <mxPoint x="340" y="210" as="targetPoint" />
          </mxGeometry>
        </mxCell>
        <mxCell id="HwIQE1jN6itCA7NaICgB-22" value="" style="endArrow=none;html=1;rounded=0;" edge="1" parent="1" source="HwIQE1jN6itCA7NaICgB-14" target="HwIQE1jN6itCA7NaICgB-13">
          <mxGeometry relative="1" as="geometry">
            <mxPoint x="375" y="290" as="sourcePoint" />
            <mxPoint x="535" y="290" as="targetPoint" />
          </mxGeometry>
        </mxCell>
        <mxCell id="HwIQE1jN6itCA7NaICgB-23" value="" style="endArrow=none;html=1;rounded=0;" edge="1" parent="1" source="HwIQE1jN6itCA7NaICgB-10" target="HwIQE1jN6itCA7NaICgB-13">
          <mxGeometry relative="1" as="geometry">
            <mxPoint x="375" y="290" as="sourcePoint" />
            <mxPoint x="535" y="290" as="targetPoint" />
          </mxGeometry>
        </mxCell>
        <mxCell id="HwIQE1jN6itCA7NaICgB-24" value="" style="endArrow=none;html=1;rounded=0;" edge="1" parent="1" source="HwIQE1jN6itCA7NaICgB-10" target="HwIQE1jN6itCA7NaICgB-12">
          <mxGeometry relative="1" as="geometry">
            <mxPoint x="545" y="500" as="sourcePoint" />
            <mxPoint x="705" y="500" as="targetPoint" />
          </mxGeometry>
        </mxCell>
        <mxCell id="HwIQE1jN6itCA7NaICgB-25" value="" style="endArrow=none;html=1;rounded=0;" edge="1" parent="1" source="HwIQE1jN6itCA7NaICgB-12" target="HwIQE1jN6itCA7NaICgB-9">
          <mxGeometry relative="1" as="geometry">
            <mxPoint x="545" y="500" as="sourcePoint" />
            <mxPoint x="705" y="500" as="targetPoint" />
          </mxGeometry>
        </mxCell>
        <mxCell id="HwIQE1jN6itCA7NaICgB-26" value="" style="endArrow=none;html=1;rounded=0;" edge="1" parent="1" source="HwIQE1jN6itCA7NaICgB-9" target="HwIQE1jN6itCA7NaICgB-11">
          <mxGeometry relative="1" as="geometry">
            <mxPoint x="545" y="500" as="sourcePoint" />
            <mxPoint x="705" y="500" as="targetPoint" />
          </mxGeometry>
        </mxCell>
        <mxCell id="HwIQE1jN6itCA7NaICgB-27" value="" style="endArrow=none;html=1;rounded=0;" edge="1" parent="1" source="HwIQE1jN6itCA7NaICgB-11" target="HwIQE1jN6itCA7NaICgB-8">
          <mxGeometry relative="1" as="geometry">
            <mxPoint x="545" y="500" as="sourcePoint" />
            <mxPoint x="705" y="500" as="targetPoint" />
          </mxGeometry>
        </mxCell>
        <mxCell id="HwIQE1jN6itCA7NaICgB-28" value="Apellidos" style="ellipse;whiteSpace=wrap;html=1;align=center;" vertex="1" parent="1">
          <mxGeometry x="280" y="20" width="100" height="40" as="geometry" />
        </mxCell>
        <mxCell id="HwIQE1jN6itCA7NaICgB-29" value="Nombre" style="ellipse;whiteSpace=wrap;html=1;align=center;" vertex="1" parent="1">
          <mxGeometry x="280" y="80" width="100" height="40" as="geometry" />
        </mxCell>
        <mxCell id="HwIQE1jN6itCA7NaICgB-30" value="DNI" style="ellipse;whiteSpace=wrap;html=1;align=center;" vertex="1" parent="1">
          <mxGeometry x="407.5" y="20" width="100" height="40" as="geometry" />
        </mxCell>
        <mxCell id="HwIQE1jN6itCA7NaICgB-31" value="NSS" style="ellipse;whiteSpace=wrap;html=1;align=center;fontStyle=4;" vertex="1" parent="1">
          <mxGeometry x="534.5" y="20" width="100" height="40" as="geometry" />
        </mxCell>
        <mxCell id="HwIQE1jN6itCA7NaICgB-32" value="Telf" style="ellipse;shape=doubleEllipse;margin=3;whiteSpace=wrap;html=1;align=center;" vertex="1" parent="1">
          <mxGeometry x="535" y="80" width="100" height="40" as="geometry" />
        </mxCell>
        <mxCell id="HwIQE1jN6itCA7NaICgB-33" value="" style="endArrow=none;html=1;rounded=0;" edge="1" parent="1" source="HwIQE1jN6itCA7NaICgB-32" target="HwIQE1jN6itCA7NaICgB-1">
          <mxGeometry relative="1" as="geometry">
            <mxPoint x="600" y="270" as="sourcePoint" />
            <mxPoint x="760" y="270" as="targetPoint" />
          </mxGeometry>
        </mxCell>
        <mxCell id="HwIQE1jN6itCA7NaICgB-34" value="" style="endArrow=none;html=1;rounded=0;" edge="1" parent="1" source="HwIQE1jN6itCA7NaICgB-1" target="HwIQE1jN6itCA7NaICgB-31">
          <mxGeometry relative="1" as="geometry">
            <mxPoint x="600" y="270" as="sourcePoint" />
            <mxPoint x="760" y="270" as="targetPoint" />
          </mxGeometry>
        </mxCell>
        <mxCell id="HwIQE1jN6itCA7NaICgB-35" value="" style="endArrow=none;html=1;rounded=0;" edge="1" parent="1" source="HwIQE1jN6itCA7NaICgB-30" target="HwIQE1jN6itCA7NaICgB-1">
          <mxGeometry relative="1" as="geometry">
            <mxPoint x="600" y="270" as="sourcePoint" />
            <mxPoint x="760" y="270" as="targetPoint" />
          </mxGeometry>
        </mxCell>
        <mxCell id="HwIQE1jN6itCA7NaICgB-36" value="" style="endArrow=none;html=1;rounded=0;" edge="1" parent="1" source="HwIQE1jN6itCA7NaICgB-29" target="HwIQE1jN6itCA7NaICgB-1">
          <mxGeometry relative="1" as="geometry">
            <mxPoint x="600" y="270" as="sourcePoint" />
            <mxPoint x="760" y="270" as="targetPoint" />
          </mxGeometry>
        </mxCell>
        <mxCell id="HwIQE1jN6itCA7NaICgB-37" value="" style="endArrow=none;html=1;rounded=0;" edge="1" parent="1" source="HwIQE1jN6itCA7NaICgB-28" target="HwIQE1jN6itCA7NaICgB-1">
          <mxGeometry relative="1" as="geometry">
            <mxPoint x="600" y="270" as="sourcePoint" />
            <mxPoint x="760" y="270" as="targetPoint" />
          </mxGeometry>
        </mxCell>
        <mxCell id="HwIQE1jN6itCA7NaICgB-38" value="Fech_nac" style="ellipse;whiteSpace=wrap;html=1;align=center;" vertex="1" parent="1">
          <mxGeometry x="740" y="280" width="100" height="40" as="geometry" />
        </mxCell>
        <mxCell id="HwIQE1jN6itCA7NaICgB-39" value="" style="endArrow=none;html=1;rounded=0;" edge="1" parent="1" source="HwIQE1jN6itCA7NaICgB-4" target="HwIQE1jN6itCA7NaICgB-38">
          <mxGeometry relative="1" as="geometry">
            <mxPoint x="580" y="410" as="sourcePoint" />
            <mxPoint x="740" y="410" as="targetPoint" />
          </mxGeometry>
        </mxCell>
        <mxCell id="HwIQE1jN6itCA7NaICgB-40" value="AÃ±os de servicio" style="ellipse;whiteSpace=wrap;html=1;align=center;" vertex="1" parent="1">
          <mxGeometry x="200" y="280" width="100" height="40" as="geometry" />
        </mxCell>
        <mxCell id="HwIQE1jN6itCA7NaICgB-41" value="" style="endArrow=none;html=1;rounded=0;" edge="1" parent="1" source="HwIQE1jN6itCA7NaICgB-40" target="HwIQE1jN6itCA7NaICgB-3">
          <mxGeometry relative="1" as="geometry">
            <mxPoint x="580" y="410" as="sourcePoint" />
            <mxPoint x="740" y="410" as="targetPoint" />
          </mxGeometry>
        </mxCell>
        <mxCell id="HwIQE1jN6itCA7NaICgB-43" value="P3 - Ejercicio 1" style="text;strokeColor=none;fillColor=none;html=1;fontSize=24;fontStyle=1;verticalAlign=middle;align=center;" vertex="1" parent="1">
          <mxGeometry x="30" y="20" width="210" height="80" as="geometry" />
        </mxCell>
        <mxCell id="HwIQE1jN6itCA7NaICgB-50" value="Persona" style="whiteSpace=wrap;html=1;align=center;" vertex="1" parent="1">
          <mxGeometry x="930" y="960" width="100" height="40" as="geometry" />
        </mxCell>
        <mxCell id="HwIQE1jN6itCA7NaICgB-56" value="Nombre" style="ellipse;whiteSpace=wrap;html=1;align=center;" vertex="1" parent="1">
          <mxGeometry x="200" y="440" width="100" height="40" as="geometry" />
        </mxCell>
        <mxCell id="HwIQE1jN6itCA7NaICgB-57" value="Tipo" style="ellipse;whiteSpace=wrap;html=1;align=center;" vertex="1" parent="1">
          <mxGeometry x="200" y="520" width="100" height="40" as="geometry" />
        </mxCell>
        <mxCell id="HwIQE1jN6itCA7NaICgB-58" value="" style="endArrow=none;html=1;rounded=0;" edge="1" parent="1" source="HwIQE1jN6itCA7NaICgB-57" target="HwIQE1jN6itCA7NaICgB-14">
          <mxGeometry relative="1" as="geometry">
            <mxPoint x="550" y="380" as="sourcePoint" />
            <mxPoint x="710" y="380" as="targetPoint" />
          </mxGeometry>
        </mxCell>
        <mxCell id="HwIQE1jN6itCA7NaICgB-59" value="" style="endArrow=none;html=1;rounded=0;" edge="1" parent="1" source="HwIQE1jN6itCA7NaICgB-56" target="HwIQE1jN6itCA7NaICgB-14">
          <mxGeometry relative="1" as="geometry">
            <mxPoint x="550" y="380" as="sourcePoint" />
            <mxPoint x="710" y="380" as="targetPoint" />
          </mxGeometry>
        </mxCell>
        <mxCell id="HwIQE1jN6itCA7NaICgB-60" value="Inmueble" style="whiteSpace=wrap;html=1;align=center;" vertex="1" parent="1">
          <mxGeometry x="290" y="1282" width="100" height="40" as="geometry" />
        </mxCell>
        <mxCell id="HwIQE1jN6itCA7NaICgB-64" value="&lt;p style=&quot;line-height: 120%;&quot;&gt;ISA&lt;/p&gt;" style="strokeWidth=2;html=1;shape=mxgraph.flowchart.merge_or_storage;whiteSpace=wrap;" vertex="1" parent="1">
          <mxGeometry x="292.5" y="1398" width="95" height="60" as="geometry" />
        </mxCell>
        <mxCell id="HwIQE1jN6itCA7NaICgB-65" value="Local" style="whiteSpace=wrap;html=1;align=center;" vertex="1" parent="1">
          <mxGeometry x="130" y="1509" width="100" height="40" as="geometry" />
        </mxCell>
        <mxCell id="HwIQE1jN6itCA7NaICgB-66" value="Garaje" style="whiteSpace=wrap;html=1;align=center;" vertex="1" parent="1">
          <mxGeometry x="290" y="1509" width="100" height="40" as="geometry" />
        </mxCell>
        <mxCell id="HwIQE1jN6itCA7NaICgB-67" value="Piso" style="whiteSpace=wrap;html=1;align=center;" vertex="1" parent="1">
          <mxGeometry x="570" y="1509" width="100" height="40" as="geometry" />
        </mxCell>
        <mxCell id="HwIQE1jN6itCA7NaICgB-68" value="" style="endArrow=none;html=1;rounded=0;" edge="1" parent="1" source="HwIQE1jN6itCA7NaICgB-127" target="HwIQE1jN6itCA7NaICgB-60">
          <mxGeometry relative="1" as="geometry">
            <mxPoint x="540" y="1181" as="sourcePoint" />
            <mxPoint x="700" y="1181" as="targetPoint" />
          </mxGeometry>
        </mxCell>
        <mxCell id="HwIQE1jN6itCA7NaICgB-69" value="" style="endArrow=none;html=1;rounded=0;" edge="1" parent="1" source="HwIQE1jN6itCA7NaICgB-66" target="HwIQE1jN6itCA7NaICgB-64">
          <mxGeometry relative="1" as="geometry">
            <mxPoint x="540" y="1209" as="sourcePoint" />
            <mxPoint x="700" y="1209" as="targetPoint" />
          </mxGeometry>
        </mxCell>
        <mxCell id="HwIQE1jN6itCA7NaICgB-70" value="" style="endArrow=none;html=1;rounded=0;entryX=0.315;entryY=0.717;entryDx=0;entryDy=0;entryPerimeter=0;" edge="1" parent="1" source="HwIQE1jN6itCA7NaICgB-65" target="HwIQE1jN6itCA7NaICgB-64">
          <mxGeometry relative="1" as="geometry">
            <mxPoint x="540" y="1209" as="sourcePoint" />
            <mxPoint x="700" y="1209" as="targetPoint" />
          </mxGeometry>
        </mxCell>
        <mxCell id="HwIQE1jN6itCA7NaICgB-71" value="" style="endArrow=none;html=1;rounded=0;exitX=0.671;exitY=0.687;exitDx=0;exitDy=0;exitPerimeter=0;" edge="1" parent="1" source="HwIQE1jN6itCA7NaICgB-64" target="HwIQE1jN6itCA7NaICgB-67">
          <mxGeometry relative="1" as="geometry">
            <mxPoint x="540" y="1209" as="sourcePoint" />
            <mxPoint x="700" y="1209" as="targetPoint" />
          </mxGeometry>
        </mxCell>
        <mxCell id="HwIQE1jN6itCA7NaICgB-72" value="contrata" style="shape=rhombus;perimeter=rhombusPerimeter;whiteSpace=wrap;html=1;align=center;" vertex="1" parent="1">
          <mxGeometry x="600" y="950" width="120" height="60" as="geometry" />
        </mxCell>
        <mxCell id="HwIQE1jN6itCA7NaICgB-73" value="" style="endArrow=none;html=1;rounded=0;exitX=1;exitY=0.5;exitDx=0;exitDy=0;" edge="1" parent="1" source="HwIQE1jN6itCA7NaICgB-72" target="HwIQE1jN6itCA7NaICgB-50">
          <mxGeometry relative="1" as="geometry">
            <mxPoint x="460" y="1130" as="sourcePoint" />
            <mxPoint x="620" y="1130" as="targetPoint" />
            <Array as="points" />
          </mxGeometry>
        </mxCell>
        <mxCell id="HwIQE1jN6itCA7NaICgB-79" value="asociado con" style="shape=rhombus;perimeter=rhombusPerimeter;whiteSpace=wrap;html=1;align=center;" vertex="1" parent="1">
          <mxGeometry x="420" y="1499" width="120" height="60" as="geometry" />
        </mxCell>
        <mxCell id="HwIQE1jN6itCA7NaICgB-83" value="" style="endArrow=none;html=1;rounded=0;" edge="1" parent="1" source="HwIQE1jN6itCA7NaICgB-66" target="HwIQE1jN6itCA7NaICgB-79">
          <mxGeometry relative="1" as="geometry">
            <mxPoint x="430" y="1579" as="sourcePoint" />
            <mxPoint x="590" y="1579" as="targetPoint" />
          </mxGeometry>
        </mxCell>
        <mxCell id="HwIQE1jN6itCA7NaICgB-84" value="" style="endArrow=none;html=1;rounded=0;" edge="1" parent="1" source="HwIQE1jN6itCA7NaICgB-67" target="HwIQE1jN6itCA7NaICgB-79">
          <mxGeometry relative="1" as="geometry">
            <mxPoint x="430" y="1579" as="sourcePoint" />
            <mxPoint x="590" y="1579" as="targetPoint" />
          </mxGeometry>
        </mxCell>
        <mxCell id="HwIQE1jN6itCA7NaICgB-90" value="" style="endArrow=none;html=1;rounded=0;" edge="1" parent="1" source="HwIQE1jN6itCA7NaICgB-143" target="HwIQE1jN6itCA7NaICgB-134">
          <mxGeometry relative="1" as="geometry">
            <mxPoint x="176.78542582460545" y="967.1025812158043" as="sourcePoint" />
            <mxPoint x="598.0665288354944" y="975.389624657593" as="targetPoint" />
          </mxGeometry>
        </mxCell>
        <mxCell id="HwIQE1jN6itCA7NaICgB-91" value="" style="endArrow=none;html=1;rounded=0;" edge="1" parent="1" source="HwIQE1jN6itCA7NaICgB-143" target="HwIQE1jN6itCA7NaICgB-135">
          <mxGeometry relative="1" as="geometry">
            <mxPoint x="176.78542582460545" y="992.8974187841957" as="sourcePoint" />
            <mxPoint x="504.22" y="1030" as="targetPoint" />
          </mxGeometry>
        </mxCell>
        <mxCell id="HwIQE1jN6itCA7NaICgB-92" value="" style="endArrow=none;html=1;rounded=0;" edge="1" parent="1" source="HwIQE1jN6itCA7NaICgB-133" target="HwIQE1jN6itCA7NaICgB-143">
          <mxGeometry relative="1" as="geometry">
            <mxPoint x="420.73901498350756" y="975.7739682152207" as="sourcePoint" />
            <mxPoint x="165" y="980" as="targetPoint" />
          </mxGeometry>
        </mxCell>
        <mxCell id="HwIQE1jN6itCA7NaICgB-97" value="N_alquiler" style="ellipse;whiteSpace=wrap;html=1;align=center;" vertex="1" parent="1">
          <mxGeometry x="170" y="1120" width="100" height="40" as="geometry" />
        </mxCell>
        <mxCell id="HwIQE1jN6itCA7NaICgB-98" value="" style="endArrow=none;html=1;rounded=0;" edge="1" parent="1" source="HwIQE1jN6itCA7NaICgB-112" target="HwIQE1jN6itCA7NaICgB-97">
          <mxGeometry relative="1" as="geometry">
            <mxPoint x="400" y="1150" as="sourcePoint" />
            <mxPoint x="560" y="1150" as="targetPoint" />
            <Array as="points" />
          </mxGeometry>
        </mxCell>
        <mxCell id="HwIQE1jN6itCA7NaICgB-99" value="Fecha" style="ellipse;whiteSpace=wrap;html=1;align=center;" vertex="1" parent="1">
          <mxGeometry x="1050" y="1360" width="100" height="40" as="geometry" />
        </mxCell>
        <mxCell id="HwIQE1jN6itCA7NaICgB-100" value="Valor" style="ellipse;whiteSpace=wrap;html=1;align=center;" vertex="1" parent="1">
          <mxGeometry x="930" y="1360" width="100" height="40" as="geometry" />
        </mxCell>
        <mxCell id="HwIQE1jN6itCA7NaICgB-104" value="Codigo de compra" style="ellipse;whiteSpace=wrap;html=1;align=center;fontStyle=4;" vertex="1" parent="1">
          <mxGeometry x="1050" y="1282" width="100" height="40" as="geometry" />
        </mxCell>
        <mxCell id="HwIQE1jN6itCA7NaICgB-105" value="Id inmueble" style="ellipse;whiteSpace=wrap;html=1;align=center;fontStyle=4;" vertex="1" parent="1">
          <mxGeometry x="170" y="1282" width="100" height="40" as="geometry" />
        </mxCell>
        <mxCell id="HwIQE1jN6itCA7NaICgB-106" value="" style="endArrow=none;html=1;rounded=0;" edge="1" parent="1" source="HwIQE1jN6itCA7NaICgB-105" target="HwIQE1jN6itCA7NaICgB-60">
          <mxGeometry relative="1" as="geometry">
            <mxPoint x="480" y="1341" as="sourcePoint" />
            <mxPoint x="640" y="1341" as="targetPoint" />
          </mxGeometry>
        </mxCell>
        <mxCell id="HwIQE1jN6itCA7NaICgB-109" value="Id_piso" style="ellipse;whiteSpace=wrap;html=1;align=center;" vertex="1" parent="1">
          <mxGeometry x="695" y="1509" width="100" height="40" as="geometry" />
        </mxCell>
        <mxCell id="HwIQE1jN6itCA7NaICgB-110" value="" style="endArrow=none;html=1;rounded=0;" edge="1" parent="1" source="HwIQE1jN6itCA7NaICgB-67" target="HwIQE1jN6itCA7NaICgB-109">
          <mxGeometry relative="1" as="geometry">
            <mxPoint x="480" y="1369" as="sourcePoint" />
            <mxPoint x="640" y="1369" as="targetPoint" />
          </mxGeometry>
        </mxCell>
        <mxCell id="HwIQE1jN6itCA7NaICgB-111" value="alquiler" style="whiteSpace=wrap;html=1;align=center;" vertex="1" parent="1">
          <mxGeometry x="290" y="960" width="100" height="40" as="geometry" />
        </mxCell>
        <mxCell id="HwIQE1jN6itCA7NaICgB-112" value="alq / inm" style="shape=rhombus;perimeter=rhombusPerimeter;whiteSpace=wrap;html=1;align=center;" vertex="1" parent="1">
          <mxGeometry x="280" y="1110" width="120" height="60" as="geometry" />
        </mxCell>
        <mxCell id="HwIQE1jN6itCA7NaICgB-113" value="com / inm" style="shape=rhombus;perimeter=rhombusPerimeter;whiteSpace=wrap;html=1;align=center;" vertex="1" parent="1">
          <mxGeometry x="600" y="1272" width="120" height="60" as="geometry" />
        </mxCell>
        <mxCell id="HwIQE1jN6itCA7NaICgB-114" value="compra" style="whiteSpace=wrap;html=1;align=center;" vertex="1" parent="1">
          <mxGeometry x="930" y="1282" width="100" height="40" as="geometry" />
        </mxCell>
        <mxCell id="HwIQE1jN6itCA7NaICgB-115" value="" style="endArrow=none;html=1;rounded=0;" edge="1" parent="1" source="HwIQE1jN6itCA7NaICgB-111" target="HwIQE1jN6itCA7NaICgB-72">
          <mxGeometry relative="1" as="geometry">
            <mxPoint x="500" y="1310" as="sourcePoint" />
            <mxPoint x="660" y="1310" as="targetPoint" />
          </mxGeometry>
        </mxCell>
        <mxCell id="HwIQE1jN6itCA7NaICgB-116" value="realiza" style="shape=rhombus;perimeter=rhombusPerimeter;whiteSpace=wrap;html=1;align=center;" vertex="1" parent="1">
          <mxGeometry x="920" y="1110" width="120" height="60" as="geometry" />
        </mxCell>
        <mxCell id="HwIQE1jN6itCA7NaICgB-117" value="" style="endArrow=none;html=1;rounded=0;" edge="1" parent="1" source="HwIQE1jN6itCA7NaICgB-114" target="HwIQE1jN6itCA7NaICgB-116">
          <mxGeometry relative="1" as="geometry">
            <mxPoint x="500" y="1310" as="sourcePoint" />
            <mxPoint x="660" y="1310" as="targetPoint" />
          </mxGeometry>
        </mxCell>
        <mxCell id="HwIQE1jN6itCA7NaICgB-118" value="" style="endArrow=none;html=1;rounded=0;" edge="1" parent="1" source="HwIQE1jN6itCA7NaICgB-50" target="HwIQE1jN6itCA7NaICgB-116">
          <mxGeometry relative="1" as="geometry">
            <mxPoint x="500" y="1310" as="sourcePoint" />
            <mxPoint x="660" y="1310" as="targetPoint" />
          </mxGeometry>
        </mxCell>
        <mxCell id="HwIQE1jN6itCA7NaICgB-119" value="" style="endArrow=none;html=1;rounded=0;" edge="1" parent="1" source="HwIQE1jN6itCA7NaICgB-113" target="HwIQE1jN6itCA7NaICgB-114">
          <mxGeometry relative="1" as="geometry">
            <mxPoint x="500" y="1310" as="sourcePoint" />
            <mxPoint x="660" y="1310" as="targetPoint" />
          </mxGeometry>
        </mxCell>
        <mxCell id="HwIQE1jN6itCA7NaICgB-120" value="" style="endArrow=none;html=1;rounded=0;" edge="1" parent="1" source="HwIQE1jN6itCA7NaICgB-60" target="HwIQE1jN6itCA7NaICgB-113">
          <mxGeometry relative="1" as="geometry">
            <mxPoint x="500" y="1310" as="sourcePoint" />
            <mxPoint x="660" y="1310" as="targetPoint" />
          </mxGeometry>
        </mxCell>
        <mxCell id="HwIQE1jN6itCA7NaICgB-121" value="" style="endArrow=none;html=1;rounded=0;" edge="1" parent="1" source="HwIQE1jN6itCA7NaICgB-112" target="HwIQE1jN6itCA7NaICgB-60">
          <mxGeometry relative="1" as="geometry">
            <mxPoint x="500" y="1310" as="sourcePoint" />
            <mxPoint x="660" y="1310" as="targetPoint" />
          </mxGeometry>
        </mxCell>
        <mxCell id="HwIQE1jN6itCA7NaICgB-122" value="" style="endArrow=none;html=1;rounded=0;" edge="1" parent="1" source="HwIQE1jN6itCA7NaICgB-112" target="HwIQE1jN6itCA7NaICgB-111">
          <mxGeometry relative="1" as="geometry">
            <mxPoint x="500" y="1310" as="sourcePoint" />
            <mxPoint x="660" y="1310" as="targetPoint" />
          </mxGeometry>
        </mxCell>
        <mxCell id="HwIQE1jN6itCA7NaICgB-123" value="" style="endArrow=none;html=1;rounded=0;" edge="1" parent="1" source="HwIQE1jN6itCA7NaICgB-99" target="HwIQE1jN6itCA7NaICgB-114">
          <mxGeometry relative="1" as="geometry">
            <mxPoint x="500" y="1310" as="sourcePoint" />
            <mxPoint x="660" y="1310" as="targetPoint" />
          </mxGeometry>
        </mxCell>
        <mxCell id="HwIQE1jN6itCA7NaICgB-124" value="" style="endArrow=none;html=1;rounded=0;" edge="1" parent="1" source="HwIQE1jN6itCA7NaICgB-100" target="HwIQE1jN6itCA7NaICgB-114">
          <mxGeometry relative="1" as="geometry">
            <mxPoint x="500" y="1310" as="sourcePoint" />
            <mxPoint x="660" y="1310" as="targetPoint" />
          </mxGeometry>
        </mxCell>
        <mxCell id="HwIQE1jN6itCA7NaICgB-126" value="" style="endArrow=none;html=1;rounded=0;" edge="1" parent="1" source="HwIQE1jN6itCA7NaICgB-104" target="HwIQE1jN6itCA7NaICgB-114">
          <mxGeometry relative="1" as="geometry">
            <mxPoint x="500" y="1310" as="sourcePoint" />
            <mxPoint x="660" y="1310" as="targetPoint" />
          </mxGeometry>
        </mxCell>
        <mxCell id="HwIQE1jN6itCA7NaICgB-128" value="" style="endArrow=none;html=1;rounded=0;" edge="1" parent="1" source="HwIQE1jN6itCA7NaICgB-64" target="HwIQE1jN6itCA7NaICgB-127">
          <mxGeometry relative="1" as="geometry">
            <mxPoint x="340" y="1389" as="sourcePoint" />
            <mxPoint x="340" y="1350" as="targetPoint" />
          </mxGeometry>
        </mxCell>
        <mxCell id="HwIQE1jN6itCA7NaICgB-127" value="" style="ellipse;whiteSpace=wrap;html=1;aspect=fixed;" vertex="1" parent="1">
          <mxGeometry x="325" y="1360" width="30" height="30" as="geometry" />
        </mxCell>
        <mxCell id="HwIQE1jN6itCA7NaICgB-131" value="" style="verticalLabelPosition=bottom;verticalAlign=top;html=1;shape=mxgraph.basic.arc;startAngle=0.3;endAngle=0.7036132104611288;" vertex="1" parent="1">
          <mxGeometry x="265" y="1378" width="150" height="100" as="geometry" />
        </mxCell>
        <mxCell id="HwIQE1jN6itCA7NaICgB-133" value="AÃ±o" style="ellipse;whiteSpace=wrap;html=1;align=center;" vertex="1" parent="1">
          <mxGeometry x="20" y="960" width="100" height="40" as="geometry" />
        </mxCell>
        <mxCell id="HwIQE1jN6itCA7NaICgB-134" value="Mes" style="ellipse;whiteSpace=wrap;html=1;align=center;" vertex="1" parent="1">
          <mxGeometry x="20" y="910" width="100" height="40" as="geometry" />
        </mxCell>
        <mxCell id="HwIQE1jN6itCA7NaICgB-135" value="Importe" style="ellipse;whiteSpace=wrap;html=1;align=center;" vertex="1" parent="1">
          <mxGeometry x="20" y="1010" width="100" height="40" as="geometry" />
        </mxCell>
        <mxCell id="HwIQE1jN6itCA7NaICgB-136" value="P3 - Ejercicio 2" style="text;strokeColor=none;fillColor=none;html=1;fontSize=24;fontStyle=1;verticalAlign=middle;align=center;" vertex="1" parent="1">
          <mxGeometry x="30" y="820" width="210" height="80" as="geometry" />
        </mxCell>
        <mxCell id="HwIQE1jN6itCA7NaICgB-137" value="" style="endArrow=none;html=1;rounded=0;" edge="1" parent="1" source="HwIQE1jN6itCA7NaICgB-111" target="HwIQE1jN6itCA7NaICgB-143">
          <mxGeometry relative="1" as="geometry">
            <mxPoint x="180" y="1170" as="sourcePoint" />
            <mxPoint x="265" y="980" as="targetPoint" />
          </mxGeometry>
        </mxCell>
        <mxCell id="HwIQE1jN6itCA7NaICgB-143" value="Attribute" style="ellipse;shape=doubleEllipse;margin=3;whiteSpace=wrap;html=1;align=center;" vertex="1" parent="1">
          <mxGeometry x="170" y="960" width="100" height="40" as="geometry" />
        </mxCell>
        <mxCell id="HwIQE1jN6itCA7NaICgB-144" value="gestiona" style="shape=rhombus;perimeter=rhombusPerimeter;whiteSpace=wrap;html=1;align=center;" vertex="1" parent="1">
          <mxGeometry x="600" y="870" width="120" height="60" as="geometry" />
        </mxCell>
        <mxCell id="HwIQE1jN6itCA7NaICgB-145" value="" style="endArrow=none;html=1;rounded=0;" edge="1" parent="1" source="HwIQE1jN6itCA7NaICgB-111" target="HwIQE1jN6itCA7NaICgB-144">
          <mxGeometry relative="1" as="geometry">
            <mxPoint x="510" y="1210" as="sourcePoint" />
            <mxPoint x="670" y="1210" as="targetPoint" />
            <Array as="points">
              <mxPoint x="340" y="900" />
            </Array>
          </mxGeometry>
        </mxCell>
        <mxCell id="HwIQE1jN6itCA7NaICgB-146" value="" style="endArrow=none;html=1;rounded=0;" edge="1" parent="1" source="HwIQE1jN6itCA7NaICgB-144" target="HwIQE1jN6itCA7NaICgB-50">
          <mxGeometry relative="1" as="geometry">
            <mxPoint x="510" y="1210" as="sourcePoint" />
            <mxPoint x="670" y="1210" as="targetPoint" />
            <Array as="points">
              <mxPoint x="980" y="900" />
            </Array>
          </mxGeometry>
        </mxCell>
      </root>
    </mxGraphModel>
  </diagram>
</mxfile>
